Coordinates
version=1
nRows=6
nColumns=46
inDegrees=yes

Units are S.I. units (second, meters, Newtons, ...)
Angles are in degrees.

endheader
time	pelvis_tilt	pelvis_list	pelvis_rotation	pelvis_tx	pelvis_ty	pelvis_tz	bb_angle	bb_tx	bb_ty	bb_tz	hip_flexion_r	hip_adduction_r	hip_rotation_r	knee_angle_r	knee_angle_r_beta	ankle_angle_r	subtalar_angle_r	mtp_angle_r	crank_angle_r	hip_flexion_l	hip_adduction_l	hip_rotation_l	knee_angle_l	knee_angle_l_beta	ankle_angle_l	subtalar_angle_l	mtp_angle_l	crank_angle_l	lumbar_extension	lumbar_bending	lumbar_rotation	arm_flex_r	arm_add_r	arm_rot_r	elbow_flex_r	pro_sup_r	wrist_flex_r	wrist_dev_r	arm_flex_l	arm_add_l	arm_rot_l	elbow_flex_l	pro_sup_l	wrist_flex_l	wrist_dev_l
      0.00500000	    -17.97901671	      4.98256417	      6.39658582	      0.10689398	      1.07066931	     -0.25686466	      0.00000000	      0.50000000	      0.00000000	      0.25000000	     48.00455434	    -12.50545173	     -2.05472487	     59.57640970	      1.03980451	     10.73188596	     -8.84038173	      0.00000000	      0.00000000	     92.34194795	      1.43023936	     -3.38817884	     99.17820575	      1.73098624	     21.01310442	     -6.17975316	      0.00000000	      0.00000000	    -49.69572142	     -1.52723332	     -9.63312146	     89.45018734	     -5.87616666	     41.94208708	     24.71882189	     25.07374911	      0.00000000	      0.00000000	     89.47499737	     -8.48701048	     40.87457190	     33.16339133	     25.56433068	      0.00000000	      0.00000000
      0.01000000	    -17.85569599	      4.96469296	      6.39858436	      0.10683893	      1.07076640	     -0.25692470	      0.00000000	      0.50000000	      0.00000000	      0.25000000	     47.86016517	    -12.51364498	     -2.13539126	     59.53112143	      1.03901408	     10.69122920	     -8.86039155	      0.00000000	      0.00000000	     92.25210239	      1.43260579	     -3.37127154	     99.25690643	      1.73235982	     21.07021166	     -6.16071609	      0.00000000	      0.00000000	    -49.85017255	     -1.48531734	     -9.63114886	     89.44132381	     -5.86502063	     41.18086666	     24.81188941	     26.06570106	      0.00000000	      0.00000000	     89.46982587	     -8.50594659	     40.41806025	     33.15164739	     26.57637417	      0.00000000	      0.00000000
      0.01500000	    -17.97578439	      4.94459923	      6.34224740	      0.10682181	      1.07052064	     -0.25683214	      0.00000000	      0.50000000	      0.00000000	      0.25000000	     48.01813814	    -12.44285025	     -2.06310722	     59.52810940	      1.03896151	     10.66132828	     -8.88035033	      0.00000000	      0.00000000	     92.40436617	      1.34334914	     -3.36854461	     99.30441850	      1.73318906	     21.04769309	     -6.17987292	      0.00000000	      0.00000000	    -49.66633461	     -1.54705037	     -9.59901449	     89.45144116	     -5.88961465	     41.77848651	     24.15772704	     28.13297125	      0.00000000	      0.00000000	     89.47745563	     -8.73506764	     41.24028671	     32.79943685	     28.71744658	      0.00000000	      0.00000000
      0.02000000	    -17.93862255	      4.95800909	      6.34113724	      0.10681566	      1.07063679	     -0.25673054	      0.00000000	      0.50000000	      0.00000000	      0.25000000	     47.93797170	    -12.44203286	     -2.08508616	     59.40776308	      1.03686107	     10.61519685	     -8.93004646	      0.00000000	      0.00000000	     92.37811813	      1.29821425	     -3.39922619	     99.33428364	      1.73371031	     21.05095390	     -6.09008529	      0.00000000	      0.00000000	    -49.72699468	     -1.57168947	     -9.63692925	     89.45369321	     -5.89107951	     41.65577777	     23.93781729	     29.33728270	      0.00000000	      0.00000000	     89.47989803	     -8.76593988	     41.02100590	     32.62254477	     29.93796125	      0.00000000	      0.00000000
      0.02500000	    -17.87571192	      4.92366909	      6.38800644	      0.10674523	      1.07077007	     -0.25684465	      0.00000000	      0.50000000	      0.00000000	      0.25000000	     47.85016840	    -12.46065443	     -2.17248034	     59.36905206	      1.03618543	     10.55202726	     -8.94784934	      0.00000000	      0.00000000	     92.32776769	      1.33168088	     -3.37536351	     99.35339558	      1.73404388	     21.07447183	     -6.02913560	      0.00000000	      0.00000000	    -49.81914067	     -1.48172252	     -9.65428364	     89.45065193	     -5.79122020	     40.91518485	     24.12359322	     29.79099982	      0.00000000	      0.00000000	     89.48572170	     -8.56686636	     40.40603082	     32.47799894	     30.34118565	      0.00000000	      0.00000000
      0.03000000	    -17.86273477	      4.89173095	      6.39091811	      0.10674784	      1.07087461	     -0.25681993	      0.00000000	      0.50000000	      0.00000000	      0.25000000	     47.80981202	    -12.44786351	     -2.22761530	     59.31165481	      1.03518366	     10.58440688	     -8.82754416	      0.00000000	      0.00000000	     92.32102786	      1.31733213	     -3.34902106	     99.36784042	      1.73429599	     21.12713395	     -5.95814413	      0.00000000	      0.00000000	    -49.85392442	     -1.44793393	     -9.51731882	     89.42703706	     -5.28725631	     37.87708031	     23.96137039	     30.78853839	      0.00000000	      0.00000000	     89.49009220	     -8.00469926	     38.91293833	     31.75908549	     31.66795831	      0.00000000	      0.00000000
